<?xml version="1.0" encoding="UTF-8" standalone="no"?>
<!-- Created with Inkscape (http://www.inkscape.org/) -->

<svg
   width="65.000687mm"
   height="36.16753mm"
   viewBox="0 0 65.000687 36.16753"
   version="1.1"
   id="svg5"
   inkscape:version="1.1.2 (0a00cf5339, 2022-02-04)"
   sodipodi:docname="logo_escoteirando.svg"
   xmlns:inkscape="http://www.inkscape.org/namespaces/inkscape"
   xmlns:sodipodi="http://sodipodi.sourceforge.net/DTD/sodipodi-0.dtd"
   xmlns="http://www.w3.org/2000/svg"
   xmlns:svg="http://www.w3.org/2000/svg">
  <sodipodi:namedview
     id="namedview7"
     pagecolor="#ffffff"
     bordercolor="#666666"
     borderopacity="1.0"
     inkscape:pageshadow="2"
     inkscape:pageopacity="0.0"
     inkscape:pagecheckerboard="0"
     inkscape:document-units="mm"
     showgrid="false"
     inkscape:zoom="2.4669562"
     inkscape:cx="762.88344"
     inkscape:cy="3.4455416"
     inkscape:window-width="1920"
     inkscape:window-height="1016"
     inkscape:window-x="0"
     inkscape:window-y="27"
     inkscape:window-maximized="1"
     inkscape:current-layer="layer1"
     fit-margin-top="2"
     fit-margin-left="2"
     fit-margin-right="2"
     fit-margin-bottom="2" />
  <defs
     id="defs2" />
  <g
     inkscape:label="Camada 1"
     inkscape:groupmode="layer"
     id="layer1"
     transform="translate(-62.94233,-82.878486)">
    <path
       style="fill:#333333;fill-opacity:1;stroke-width:0.306174"
       d="m 125.93215,107.30948 c 0.0925,-0.14953 -0.41613,-0.35822 -1.13008,-0.46375 -2.0376,-0.30117 -8.73982,-0.78064 -11.01914,-0.7883 l -2.06668,-0.007 -0.007,-4.82225 c -0.009,-6.274424 -0.1324,-6.565794 -4.02869,-9.494326 -4.65854,-3.501423 -9.69936,-6.806806 -10.436307,-6.843328 -1.64775,-0.0817 -2.42837,0.208457 -6.041948,2.24543 -9.252547,5.215643 -10.090794,6.256145 -10.341454,12.836885 -0.08112,2.130179 -0.254351,4.045909 -0.384917,4.257159 -0.358487,0.58005 -3.236715,0.94515 -9.174945,1.16384 -3.236368,0.11919 -5.358047,0.31856 -5.358047,0.50349 0,0.19936 8.225144,0.39125 23.575404,0.55003 18.772284,0.19415 33.839794,0.65054 36.033924,1.09143 0.11636,0.0234 0.28718,-0.0798 0.3796,-0.22937 z m -43.343839,-2.34259 c 1.294228,-0.5619 1.434746,-0.56015 0.959915,0.012 -0.209625,0.2526 -0.743172,0.45387 -1.185637,0.44727 -0.770424,-0.0116 -0.760866,-0.0309 0.225722,-0.45925 z m 17.799499,-0.14111 c -0.420998,-0.13482 -1.30967,-0.25886 -1.974836,-0.27565 -0.967506,-0.0244 -1.132834,-0.10704 -0.826664,-0.41324 0.210493,-0.21049 0.821757,-0.38271 1.358348,-0.38271 0.776262,0 1.063242,-0.18279 1.404342,-0.89447 0.55561,-1.15923 0.20879,-1.70238 -1.437403,-2.25111 -0.703643,-0.23455 -1.279358,-0.613909 -1.279358,-0.843029 0,-0.32241 0.577069,-0.40411 2.553191,-0.36144 l 2.5532,0.0551 -0.5552,2.453639 c -0.30536,1.3495 -0.55874,2.62586 -0.56307,2.83635 -0.008,0.42439 -0.12405,0.43154 -1.23255,0.0765 z M 97.172972,92.031139 c -1.04645,-0.79086 -1.56081,-1.412759 -1.625498,-1.96533 -0.13082,-1.117397 1.053555,-3.370881 1.705645,-3.245302 0.851845,0.164044 2.490355,6.374572 1.68036,6.369133 -0.126296,-8.68e-4 -0.918522,-0.522183 -1.760507,-1.158501 z"
       id="path77"
       sodipodi:nodetypes="csccscsssssssccccccccssssssccscccssssss" />
    <text
       xml:space="preserve"
       style="font-style:normal;font-variant:normal;font-weight:normal;font-stretch:normal;font-size:10.9121px;line-height:1.25;font-family:Courgette;-inkscape-font-specification:'Courgette, Normal';font-variant-ligatures:normal;font-variant-caps:normal;font-variant-numeric:normal;font-variant-east-asian:normal;letter-spacing:0px;word-spacing:0px;fill:#333333;fill-opacity:1;stroke:none;stroke-width:0.272802"
       x="59.463882"
       y="115.05997"
       id="text2064-9"
       transform="rotate(1.1550611)"><tspan
         sodipodi:role="line"
         id="tspan4436-8"
         x="59.463882"
         y="115.05997">Escoteirando</tspan></text>
    <path
       style="fill:#333333;fill-opacity:1;stroke-width:0.264583"
       d="M 156.96307,87.406423 V 55.372441 h 30.82396 30.82395 v 32.014592 32.014577 h -0.92604 c -1.01857,0 -1.11783,-0.14329 -0.54087,-0.78082 0.51186,-0.5656 0.15313,-3.18264 -0.80449,-5.86904 -0.76467,-2.14514 -1.3723,-3.08921 -0.99904,-1.55223 0.12369,0.50933 0.22134,1.4023 0.21701,1.98438 -0.008,1.10507 -1.10018,5.31377 -1.52738,5.88698 -0.17082,0.2292 -1.12993,0.33073 -3.1245,0.33073 -2.76101,0 -2.87802,-0.0229 -2.87802,-0.56409 0,-0.31024 -0.25091,-0.97006 -0.55757,-1.46625 -0.63553,-1.02831 -0.58819,-1.63382 0.29636,-3.7905 0.32826,-0.80036 0.77809,-1.90292 0.99962,-2.45014 0.22152,-0.54721 1.0336,-1.67831 1.80463,-2.51354 1.30707,-1.41592 1.40266,-1.47191 1.41378,-0.82801 0.007,0.43367 -0.32386,1.04664 -0.89065,1.64761 -0.73479,0.7791 -1.00926,1.41143 -1.47645,3.40138 -0.57945,2.46816 -0.92551,3.38107 -1.39864,3.68969 -0.14238,0.0929 -0.17984,0.29674 -0.0832,0.45304 0.37298,0.6035 1.47045,-0.2645 1.76075,-1.39262 0.99261,-3.85712 1.33369,-4.79464 2.25798,-6.20632 0.56804,-0.86757 1.24115,-1.6358 1.49582,-1.70718 1.29493,-0.36297 -0.40583,-2.27744 -3.80788,-4.28636 -1.76238,-1.04069 -2.46127,-1.30639 -3.58028,-1.36111 -1.67611,-0.082 -2.03757,0.30666 -1.03142,1.10894 0.56621,0.45148 0.64036,0.61384 0.33405,0.73138 -0.46913,0.18002 -0.77651,2.20806 -0.71026,4.68616 0.068,2.54183 0.0528,4.68961 -0.046,6.54036 -0.0855,1.60018 -0.0605,1.67216 0.90429,2.60986 1.56704,1.52298 1.40019,1.6977 -1.62125,1.6977 -3.07569,0 -3.69682,-0.33239 -2.40537,-1.2872 l 0.791,-0.58481 0.24155,0.63533 c 0.23397,0.6154 0.88831,1.07144 1.15485,0.80489 0.28051,-0.2805 -0.1916,-2.38343 -0.68553,-3.05362 -0.39283,-0.533 -0.46975,-0.89156 -0.31219,-1.4552 0.115,-0.41137 0.21992,-1.75997 0.23317,-2.99689 0.0133,-1.23693 0.12759,-2.3243 0.25409,-2.41638 0.25788,-0.1877 -0.55596,-2.87529 -0.87068,-2.87529 -0.1107,0 -0.50944,0.56555 -0.8861,1.25677 -0.37665,0.69123 -1.05328,1.60922 -1.50362,2.03998 -0.77352,0.73989 -0.866,0.76382 -1.67233,0.43276 -2.45906,-1.00963 -2.9879,-0.58571 -3.15865,2.53204 -0.0784,1.4321 -0.27199,2.39503 -0.57411,2.85613 -0.60845,0.92861 -0.87073,3.18123 -0.43196,3.70991 0.29403,0.35429 0.0353,0.40158 -2.19704,0.40158 -1.47179,0 -2.60171,-0.1155 -2.70096,-0.27609 -0.0939,-0.15185 -0.28158,-1.55084 -0.41718,-3.10886 -0.1356,-1.55802 -0.30836,-3.10911 -0.38391,-3.44687 -0.22266,-0.99547 -0.7793,-0.50347 -0.7793,0.6888 0,1.40265 -0.64979,2.19731 -0.68532,0.83812 l -0.0239,-0.91281 -0.26922,0.92604 c -0.2577,0.88643 -0.14301,3.44112 0.21085,4.69635 0.15182,0.53856 0.0766,0.59532 -0.78909,0.59532 -1.10331,0 -1.19189,-0.30136 -0.42773,-1.45521 0.40919,-0.61786 0.52428,-1.23347 0.51938,-2.77813 -0.008,-2.45837 -0.29482,-2.09627 -1.18368,1.49335 -0.34483,1.39257 -0.67775,2.58273 -0.73982,2.6448 -0.0621,0.0621 -0.18922,-0.46278 -0.28255,-1.16634 -0.21051,-1.5869 0.0573,-3.70406 0.56826,-4.49316 0.35359,-0.546 0.34256,-0.59531 -0.13307,-0.59531 -0.28522,0 -0.73409,0.23812 -0.99748,0.52916 -0.57338,0.63358 -1.00844,0.67062 -1.46171,0.12446 -0.47297,-0.56989 0.0298,-1.57359 1.05337,-2.1029 0.44287,-0.22902 0.80522,-0.58774 0.80522,-0.79717 0,-0.37996 0.77131,-0.92855 1.30552,-0.92855 0.15509,0 0.28198,0.24186 0.28198,0.53747 0,0.29561 0.18544,0.60863 0.41208,0.6956 0.22664,0.087 0.35091,0.31754 0.27614,0.51239 -0.0748,0.19484 -0.0403,0.41337 0.0766,0.48562 0.31734,0.19612 1.48414,-1.13824 2.22647,-2.54622 0.58325,-1.10626 0.70538,-1.20389 1.1235,-0.89815 0.28352,0.20731 0.40304,0.51517 0.30213,0.77815 -0.0918,0.23933 -0.0649,0.43514 0.0599,0.43514 0.12476,0 0.30156,-0.39836 0.3929,-0.88525 0.11182,-0.59603 0.50631,-1.15866 1.20751,-1.72216 0.94595,-0.76018 1.63073,-1.84353 3.95447,-6.25613 l 0.55733,-1.058341 -0.66259,-0.48385 c -0.36442,-0.26612 -1.21119,-1.546036 -1.88169,-2.844266 -0.67051,-1.29823 -1.36036,-2.36042 -1.533,-2.36042 -0.17264,0 -0.90025,0.59531 -1.61692,1.32292 -1.18303,1.20109 -1.41358,1.323 -2.50359,1.3239 -0.73263,5.3e-4 -1.53823,0.20686 -2.06686,0.52917 -0.47646,0.2905 -1.16107,0.52818 -1.52136,0.52818 -0.36028,0 -0.65506,0.0674 -0.65506,0.14968 0,0.318 0.63777,1.361076 1.62741,2.661617 0.56755,0.74585 1.31748,2.08478 1.66651,2.9754 0.34903,0.89062 0.88178,1.93355 1.18388,2.31761 0.7483,0.95131 0.69681,1.24535 -0.35911,2.05074 -1.2713,0.96967 -1.57687,0.88287 -1.96207,-0.55734 -0.18391,-0.68761 -0.67507,-1.96754 -1.09146,-2.84427 -0.4164,-0.87674 -1.0114,-2.36797 -1.32223,-3.31386 -0.31083,-0.94588 -0.79687,-2.042391 -1.08008,-2.436681 -0.28321,-0.394286 -0.51493,-1.011336 -0.51493,-1.371226 0,-0.42792 -0.18312,-0.70629 -0.52917,-0.80447 -0.29104,-0.0826 -0.7647,-0.21685 -1.05257,-0.29841 -0.37446,-0.10609 -0.88264,0.18692 -1.78593,1.02977 -1.00778,0.94034 -2.17017,1.559756 -5.76046,3.069637 -2.47385,1.04037 -5.00825,2.15455 -5.63198,2.47596 -1.80509,0.93015 -3.59704,2.66349 -4.47922,4.33272 -0.91488,1.7311 -3.24624,7.39053 -4.15654,10.09008 -0.37677,1.11733 -0.75961,1.8036 -1.03624,1.85754 -0.40663,0.0793 -0.43873,-2.25774 -0.43873,-31.948437 z m 37.2497,19.985297 c 1.48848,-0.75427 5.74408,-5.06896 6.29131,-6.37867 0.73917,-1.769081 0.40477,-2.118801 -0.42954,-0.44921 -1.06304,2.12734 -4.17512,5.46915 -5.48457,5.88944 -1.01482,0.32573 -1.90815,0.95666 -1.90815,1.34767 0,0.329 0.15689,0.28706 1.53095,-0.40923 z m 3.18754,-6.08353 c 0.19408,-0.39828 0.27697,-0.92193 0.18421,-1.16368 -0.13192,-0.343761 -0.30056,-0.210551 -0.77399,0.61139 -0.33293,0.578 -0.55374,1.1465 -0.49069,1.26332 0.20184,0.37397 0.71693,0.035 1.08047,-0.71103 z m -18.9535,-5.084437 c 3.35361,-1.05087 5.48626,-2.28418 7.42328,-4.29288 1.68266,-1.74493 1.70633,-1.79016 2.01038,-3.84133 0.19637,-1.32471 0.64193,-2.77054 1.2316,-3.99651 0.94256,-1.95967 1.21534,-3.78176 0.59319,-3.96238 -0.18191,-0.0528 -1.69995,-0.28002 -3.37344,-0.50492 -1.8557,-0.24939 -3.4516,-0.62156 -4.09084,-0.95401 -1.27647,-0.66386 -3.61429,-0.74703 -4.11283,-0.14632 -0.27887,0.33601 -0.20066,0.44422 0.49677,0.68734 0.45525,0.1587 0.82773,0.47395 0.82773,0.70055 0,0.35195 -0.0764,0.34285 -0.5242,-0.0624 -0.37883,-0.34283 -0.6173,-0.39726 -0.8599,-0.19624 -0.45372,0.37596 -1.52631,-0.49524 -1.52631,-1.23972 0,-0.4871 -0.15746,-0.5529 -1.32292,-0.5529 -1.24682,0 -1.76918,0.37453 -0.95702,0.68618 0.30007,0.11515 0.27811,0.31596 -0.12205,1.11617 -0.83869,1.67713 -2.09593,5.01586 -2.09593,5.56594 0,0.72878 0.27075,1.36296 0.58189,1.36296 0.14338,0 0.57311,-0.24576 0.95497,-0.54613 0.56972,-0.44814 0.91624,-0.51559 1.93143,-0.37597 0.77888,0.10713 1.3025,0.0644 1.41358,-0.11533 0.25541,-0.41326 1.20355,-0.35103 1.20355,0.079 0,0.80033 -2.34326,1.74004 -3.65552,1.46595 -0.70167,-0.14655 -0.98191,-0.0711 -1.3993,0.37696 -1.38604,1.48773 -0.68185,2.90826 1.30687,2.63628 0.92521,-0.12653 1.25758,-0.32787 1.7198,-1.04178 0.31511,-0.48671 0.67088,-0.8864 0.79058,-0.8882 0.1197,-0.002 -0.0291,0.31044 -0.33073,0.69387 -0.72734,0.92466 -0.69466,1.06674 0.24538,1.06674 0.47431,0 0.79375,-0.13822 0.79375,-0.34346 0,-0.50293 0.97852,-0.97843 1.14914,-0.55841 0.10187,0.25079 0.19494,0.2406 0.39295,-0.043 0.21121,-0.30249 0.38937,-0.23145 0.95788,0.38198 0.39246,0.42348 0.66431,0.99192 0.62057,1.29766 -0.067,0.46805 -0.23961,0.53363 -1.23569,0.46936 -0.63682,-0.0411 -1.3512,-0.17627 -1.5875,-0.3004 -0.2363,-0.12414 -1.17914,-0.3112 -2.0952,-0.41569 l -1.66555,-0.18997 0.2048,0.75497 c 0.11264,0.41523 0.18891,1.61306 0.1695,2.66185 -0.0308,1.66391 0.0442,1.99262 0.58822,2.57969 0.34294,0.37004 0.74213,0.67279 0.88709,0.67279 0.14495,0 1.25197,-0.30972 2.46003,-0.68827 z m 20.0541,-1.36225 c -0.001,-0.25466 -0.2383,-0.8202 -0.52742,-1.25677 l -0.52568,-0.79375 -0.002,1.08038 c -0.001,0.59422 0.0776,1.15976 0.17464,1.25678 0.34444,0.34444 0.88192,0.16941 0.8802,-0.28664 z m -3.92333,-6.87916 c 2.06934,-1.86055 3.01407,-3.97651 2.44156,-5.46847 -0.26806,-0.69854 -0.54882,-0.46835 -0.42852,0.35134 0.0622,0.42342 -0.004,0.97919 -0.14735,1.23506 -0.21392,0.38224 -0.29357,0.26855 -0.44665,-0.63756 -0.20355,-1.20481 -0.29578,-1.26837 -1.03178,-0.711 -0.35215,0.26669 -0.44765,0.56397 -0.33076,1.02967 0.12006,0.47837 -0.0202,0.87399 -0.52061,1.46873 -0.91321,1.08528 -1.26944,1.04579 -1.05139,-0.11654 0.23508,-1.25307 0.0288,-1.48223 -0.91178,-1.013 -0.64804,0.32328 -0.7914,0.55904 -0.7914,1.30146 0,0.49866 0.11906,0.90666 0.26459,0.90666 0.14552,0 0.26458,-0.19844 0.26458,-0.44097 0,-0.24253 0.0752,-0.36579 0.16707,-0.2739 0.0919,0.0919 0.15366,0.76191 0.13728,1.48895 -0.0224,0.99581 0.0832,1.38772 0.42825,1.58878 0.68042,0.39647 0.75869,0.3681 1.95691,-0.70921 z m 18.06196,-11.14901 c 0.0799,-0.12922 -0.35959,-0.30956 -0.97657,-0.40075 -1.76081,-0.26026 -7.5526,-0.6746 -9.5223,-0.68122 l -1.78593,-0.006 -0.006,-4.16719 c -0.008,-5.4221 -0.11441,-5.6739 -3.48143,-8.204612 -4.02572,-3.0258 -8.38179,-5.88218 -9.01864,-5.91374 -1.42392,-0.0706 -2.09849,0.18014 -5.22121,1.94041 -7.99568,4.50715 -8.72005,5.406322 -8.93667,11.093122 -0.0701,1.84082 -0.2198,3.49632 -0.33262,3.67888 -0.30979,0.50125 -2.79704,0.81676 -7.92862,1.00574 -2.79674,0.10299 -4.63021,0.27528 -4.63021,0.4351 0,0.17227 7.10784,0.3381 20.37291,0.4753 16.22226,0.16779 29.24299,0.56217 31.13907,0.94317 0.10056,0.0202 0.24817,-0.069 0.32803,-0.19821 z m -37.45599,-2.02437 c 1.11842,-0.48557 1.23984,-0.48405 0.82952,0.0104 -0.18116,0.21828 -0.64222,0.39221 -1.02459,0.38652 -0.66577,-0.01 -0.65751,-0.0267 0.19507,-0.39688 z m 15.3816,-0.12193 c -0.3638,-0.11651 -1.13175,-0.22371 -1.70656,-0.23821 -0.83608,-0.0211 -0.97896,-0.0925 -0.71438,-0.35711 0.18191,-0.1819 0.71013,-0.33073 1.17384,-0.33073 0.67081,0 0.9188,-0.15795 1.21357,-0.77296 0.48013,-1.00176 0.18042,-1.47113 -1.24214,-1.94532 -0.60807,-0.20268 -1.10558,-0.53052 -1.10558,-0.72851 0,-0.27862 0.49868,-0.34922 2.20636,-0.31235 l 2.20637,0.0476 -0.47978,2.12034 c -0.26388,1.16619 -0.48284,2.26917 -0.48657,2.45107 -0.007,0.36674 -0.10721,0.37293 -1.06513,0.0661 z m -2.77812,-11.056632 c -0.9043,-0.68343 -1.3488,-1.22085 -1.4047,-1.69836 -0.11304,-0.96561 0.91045,-2.91298 1.47396,-2.80446 0.73612,0.14176 2.15205,5.508652 1.45209,5.503952 -0.10914,-7.4e-4 -0.79375,-0.45124 -1.52135,-1.001132 z M 163.04849,118.3856 c 0,-0.55881 -0.24133,-1.95779 -0.53628,-3.10886 -0.47316,-1.84653 -0.50121,-2.32638 -0.23832,-4.07722 0.44754,-2.98058 0.64013,-2.91728 0.66216,0.21764 0.0137,1.95051 0.198,3.54823 0.59531,5.16107 0.70113,2.84614 0.70076,2.82338 0.0463,2.82338 -0.4373,0 -0.52917,-0.17639 -0.52917,-1.01601 z m 3.02166,0.71737 c -0.30354,-0.49113 -0.15112,-3.69738 0.24993,-5.25761 l 0.37406,-1.45521 0.0293,3.50573 c 0.027,3.23822 -0.13683,4.04267 -0.65325,3.20709 z m 3.21971,-0.89199 c -0.11811,-0.7276 -0.37836,-2.03729 -0.57832,-2.91041 -0.43497,-1.89927 -0.46107,-2.51355 -0.1068,-2.51355 0.14552,0 0.26458,0.28493 0.26458,0.63316 0,0.34824 0.18676,1.53622 0.41501,2.63996 0.22826,1.10375 0.37121,2.33687 0.31765,2.74028 -0.0757,0.5706 -0.14505,0.4397 -0.31212,-0.58944 z m 30.03836,-0.13229 c 0.46777,-0.58208 0.8901,-1.05833 0.9385,-1.05833 0.33156,0 -0.0244,0.93017 -0.56142,1.46723 -1.03966,1.03967 -1.30766,0.74907 -0.37708,-0.4089 z m -16.3844,-1.19062 c 0.005,-0.43657 0.0647,-0.58313 0.13177,-0.3257 0.0671,0.25743 0.0627,0.61462 -0.01,0.79375 -0.0725,0.17913 -0.12736,-0.0315 -0.12197,-0.46805 z m -4.41472,-0.31758 c 0.0698,-0.40742 0.30609,-1.73618 0.52519,-2.9528 0.2191,-1.21662 0.40591,-3.12162 0.41513,-4.23333 0.0137,-1.64595 0.0672,-1.89846 0.28841,-1.35984 0.40321,0.98187 0.1102,6.23147 -0.43195,7.73876 -0.51588,1.43426 -0.9856,1.91013 -0.79678,0.80721 z m -7.90356,-5.63555 c -0.10959,-0.65484 -0.44917,-1.92526 -0.75463,-2.82315 l -0.55537,-1.63252 0.87976,-0.87977 0.87976,-0.87976 -0.16996,1.43511 c -0.10086,0.85155 -0.0599,1.56772 0.10067,1.76122 0.17658,0.21277 0.19217,1.00088 0.0448,2.2678 l -0.22581,1.9417 z m 12.84361,-1.65364 c 0.0997,-0.7021 0.9639,-0.91281 1.83395,-0.44717 0.56477,0.30225 0.54843,0.32676 -0.44937,0.67408 -1.38434,0.48187 -1.48295,0.46571 -1.38458,-0.22691 z"
       id="path4470" />
    <rect
       style="fill:#333333;fill-opacity:1;stroke:none;stroke-width:1;paint-order:stroke fill markers"
       id="rect4622"
       width="61.7388"
       height="21.391371"
       x="176.65314"
       y="125.50389" />
    <path
       style="fill:#333333;fill-opacity:1;stroke-width:0.264583"
       d="m 241.43484,53.413709 h 61.42852 v 51.559331 h -61.42852 z m 21.26435,40.851317 c 3.35361,-1.05087 5.48626,-2.28418 7.42328,-4.29288 1.68266,-1.74493 1.70633,-1.79016 2.01038,-3.84133 0.19637,-1.32471 0.64193,-2.77054 1.2316,-3.99651 0.94256,-1.95967 1.21534,-3.78176 0.59319,-3.96238 -0.18191,-0.0528 -1.69995,-0.28002 -3.37344,-0.50492 -1.8557,-0.24939 -3.4516,-0.62156 -4.09084,-0.95401 -1.27647,-0.66386 -3.61429,-0.74703 -4.11283,-0.14632 -0.27887,0.33601 -0.20066,0.44422 0.49677,0.68734 0.45525,0.1587 0.82773,0.47395 0.82773,0.70055 0,0.35195 -0.0764,0.34285 -0.5242,-0.0624 -0.37883,-0.34283 -0.6173,-0.39726 -0.8599,-0.19624 -0.45372,0.37596 -1.52631,-0.49524 -1.52631,-1.23972 0,-0.4871 -0.15746,-0.5529 -1.32292,-0.5529 -1.24682,0 -1.76918,0.37453 -0.95702,0.68618 0.30007,0.11515 0.27811,0.31596 -0.12205,1.11617 -0.83869,1.67713 -2.09593,5.01586 -2.09593,5.56594 0,0.72878 0.27075,1.36296 0.58189,1.36296 0.14338,0 0.57311,-0.24576 0.95497,-0.54613 0.56972,-0.44814 0.91624,-0.51559 1.93143,-0.37597 0.77888,0.10713 1.3025,0.0644 1.41358,-0.11533 0.25541,-0.41326 1.20355,-0.35103 1.20355,0.079 0,0.80033 -2.34326,1.74004 -3.65552,1.46595 -0.70167,-0.14655 -0.98191,-0.0711 -1.3993,0.37696 -1.38604,1.48773 -0.68185,2.90826 1.30687,2.63628 0.92521,-0.12653 1.25758,-0.32787 1.7198,-1.04178 0.31511,-0.48671 0.67088,-0.8864 0.79058,-0.8882 0.1197,-0.002 -0.0291,0.31044 -0.33073,0.69387 -0.72734,0.92466 -0.69466,1.06674 0.24538,1.06674 0.47431,0 0.79375,-0.13822 0.79375,-0.34346 0,-0.50293 0.97852,-0.97843 1.14914,-0.55841 0.10187,0.25079 0.19494,0.2406 0.39295,-0.043 0.21121,-0.30249 0.38937,-0.23145 0.95788,0.38198 0.39246,0.42348 0.66431,0.99192 0.62057,1.29766 -0.067,0.46805 -0.23961,0.53363 -1.23569,0.46936 -0.63682,-0.0411 -1.3512,-0.17627 -1.5875,-0.3004 -0.2363,-0.12414 -1.17914,-0.3112 -2.0952,-0.41569 l -1.66555,-0.18997 0.2048,0.75497 c 0.11264,0.41523 0.18891,1.61306 0.1695,2.66185 -0.0308,1.66391 0.0442,1.99262 0.58822,2.57969 0.34294,0.37004 0.74213,0.67279 0.88709,0.67279 0.14495,0 1.25197,-0.30972 2.46003,-0.68827 z m 16.13077,-8.24141 c 2.06934,-1.86055 3.01407,-3.97651 2.44156,-5.46847 -0.26806,-0.69854 -0.54882,-0.46835 -0.42852,0.35134 0.0622,0.42342 -0.004,0.97919 -0.14735,1.23506 -0.21392,0.38224 -0.29357,0.26855 -0.44665,-0.63756 -0.20355,-1.20481 -0.29578,-1.26837 -1.03178,-0.711 -0.35215,0.26669 -0.44765,0.56397 -0.33076,1.02967 0.12006,0.47837 -0.0202,0.87399 -0.52061,1.46873 -0.91321,1.08528 -1.26944,1.04579 -1.05139,-0.11654 0.23508,-1.25307 0.0288,-1.48223 -0.91178,-1.013 -0.64804,0.32328 -0.7914,0.55904 -0.7914,1.30146 0,0.49866 0.11906,0.90666 0.26459,0.90666 0.14552,0 0.26458,-0.19844 0.26458,-0.44097 0,-0.24253 0.0752,-0.36579 0.16707,-0.2739 0.0919,0.0919 0.15366,0.76191 0.13728,1.48895 -0.0224,0.99581 0.0832,1.38772 0.42825,1.58878 0.68042,0.39647 0.75869,0.3681 1.95691,-0.70921 z m 18.06196,-11.14901 c 0.0799,-0.12922 -0.35959,-0.30956 -0.97657,-0.40075 -1.76081,-0.26026 -7.5526,-0.6746 -9.5223,-0.68122 l -1.78593,-0.006 -0.006,-4.16719 c -0.008,-5.422105 -0.11441,-5.673905 -3.48143,-8.204617 -4.02572,-3.0258 -8.38179,-5.88218 -9.01864,-5.91374 -1.42392,-0.0706 -2.09849,0.18014 -5.22121,1.94041 -7.99568,4.50715 -8.72005,5.406322 -8.93667,11.093127 -0.0701,1.84082 -0.2198,3.49632 -0.33262,3.67888 -0.30979,0.50125 -2.79704,0.81676 -7.92862,1.00574 -2.79674,0.10299 -4.63021,0.27528 -4.63021,0.4351 0,0.17227 7.10784,0.3381 20.37291,0.4753 16.22226,0.16779 29.24299,0.56217 31.13907,0.94317 0.10056,0.0202 0.24817,-0.069 0.32803,-0.19821 z m -37.45599,-2.02437 c 1.11842,-0.48557 1.23984,-0.48405 0.82952,0.0104 -0.18116,0.21828 -0.64222,0.39221 -1.02459,0.38652 -0.66577,-0.01 -0.65751,-0.0267 0.19507,-0.39688 z m 15.3816,-0.12193 c -0.3638,-0.11651 -1.13175,-0.22371 -1.70656,-0.23821 -0.83608,-0.0211 -0.97896,-0.0925 -0.71438,-0.35711 0.18191,-0.1819 0.71013,-0.33073 1.17384,-0.33073 0.67081,0 0.9188,-0.15795 1.21357,-0.77296 0.48013,-1.00176 0.18042,-1.47113 -1.24214,-1.94532 -0.60807,-0.20268 -1.10558,-0.53052 -1.10558,-0.72851 0,-0.27862 0.49868,-0.34922 2.20636,-0.31235 l 2.20637,0.0476 -0.47978,2.12034 c -0.26388,1.16619 -0.48284,2.26917 -0.48657,2.45107 -0.007,0.36674 -0.10721,0.37293 -1.06513,0.0661 z m -2.77812,-11.056637 c -0.9043,-0.68343 -1.3488,-1.22085 -1.4047,-1.69836 -0.11304,-0.96561 0.91045,-2.91298 1.47396,-2.80446 0.73612,0.14176 2.15205,5.508652 1.45209,5.503952 -0.10914,-7.4e-4 -0.79375,-0.45124 -1.52135,-1.001132 z"
       id="path4726"
       sodipodi:nodetypes="cccccssssssssssssssssssssssscssccssssssssscssssssssccssscssssssssscssccsssssssssccsscsscssssssscscccsssss" />
    <text
       xml:space="preserve"
       style="font-style:normal;font-variant:normal;font-weight:normal;font-stretch:normal;font-size:10.5177px;line-height:1.25;font-family:Courgette;-inkscape-font-specification:'Courgette, Normal';font-variant-ligatures:normal;font-variant-caps:normal;font-variant-numeric:normal;font-variant-east-asian:normal;letter-spacing:0px;word-spacing:0px;fill:#ffffff;fill-opacity:1;stroke:none;stroke-width:0.262942"
       x="243.07243"
       y="100.50288"
       id="text2064"
       transform="rotate(0.34053495)"><tspan
         sodipodi:role="line"
         id="tspan4436"
         x="243.07243"
         y="100.50288"
         style="stroke-width:0.262942">Escoteirando</tspan></text>
  </g>
</svg>
